<?xml version="1.0" standalone="no"?>
<svg viewBox="0 0 200 200" xmlns="http://www.w3.org/2000/svg">
  <path fill="#64CE93" d="M31.3,-57.9C42.6,-47.8,55.1,-43.4,61.2,-34.7C67.2,-26,66.8,-13,62,-2.8C57.1,7.4,47.8,14.8,39.9,20.3C32,25.8,25.5,29.4,19.1,42.1C12.7,54.7,6.4,76.4,2.1,72.8C-2.1,69.1,-4.3,40.1,-10.6,27.4C-16.9,14.7,-27.4,18.3,-31.3,16.4C-35.2,14.6,-32.6,7.3,-34.1,-0.9C-35.6,-9.1,-41.3,-18.1,-41,-26.1C-40.6,-34.1,-34.1,-41,-26.3,-53.1C-18.4,-65.2,-9.2,-82.6,0.4,-83.3C10,-84,20.1,-68,31.3,-57.9Z" transform="translate(100 100)" />
</svg>
